# xmcd
#
# Track frame offsets:
#	150
#	13284
#	33672
#	48625
#	63130
#	78052
#	97823
#	114354
#	131214
#	145668
#
# Disc length: 2092 seconds
#
# Revision: 2
# Processed by: cddbd v1.5.1PL2 Copyright (c) Steve Scherf et al.
# Submitted via: audiograbber 1.83.01
#
DISCID=7e082a0a
DTITLE=Quinteto Rebelde - Quinteto Rebelde
DYEAR=2001
DGENRE=Latin
TTITLE0=Respeto al Che Guevara
TTITLE1=Hay que cuidar a Fidel
TTITLE2=Eso que tiene Fidel
TTITLE3=Que venga la ofensiva
TTITLE4=Que se vaya el mono
TTITLE5=La Lupe
TTITLE6=Cuando la revolución de Julio
TTITLE7=Hasta siempre Comandante
TTITLE8=Mi aporte al imperialismo
TTITLE9=Soy fidelista
EXTD=
EXTT0=
EXTT1=
EXTT2=
EXTT3=
EXTT4=
EXTT5=
EXTT6=
EXTT7=
EXTT8=
EXTT9=
PLAYORDER=
